<?xml version="1.0" standalone="no"?>
<!DOCTYPE svg PUBLIC "-//W3C//DTD SVG 20010904//EN"
 "http://www.w3.org/TR/2001/REC-SVG-20010904/DTD/svg10.dtd">
<svg version="1.0" xmlns="http://www.w3.org/2000/svg"
 width="1381.000000pt" height="1412.000000pt" viewBox="0 0 1381.000000 1412.000000"
 preserveAspectRatio="xMidYMid meet">
<metadata>
Created by potrace 1.15, written by Peter Selinger 2001-2017
</metadata>
<g transform="translate(0.000000,1412.000000) scale(0.100000,-0.100000)"
fill="#000000" stroke="none">
<path d="M11618 10688 c-174 -247 -363 -471 -608 -722 -259 -263 -466 -444
-713 -621 -112 -80 -108 -62 -55 -220 62 -191 173 -385 312 -548 l67 -77 46
52 c162 182 415 569 569 868 43 84 60 95 204 144 172 59 388 75 564 42 111
-21 256 -73 343 -123 38 -21 71 -39 74 -41 12 -5 29 111 29 192 -1 316 -212
588 -516 666 -84 22 -238 27 -309 10 -22 -5 -41 -8 -42 -6 -1 1 6 34 17 73 22
77 90 396 86 400 -2 2 -32 -39 -68 -89z"/>
<path d="M2124 10740 c23 -113 78 -354 91 -396 8 -26 13 -49 11 -51 -2 -2 -32
4 -67 13 -97 25 -278 15 -383 -21 -161 -56 -313 -189 -386 -339 -53 -107 -73
-191 -74 -306 -1 -84 19 -220 32 -220 2 0 31 16 63 35 317 193 718 222 1048
74 l71 -32 62 -116 c157 -296 319 -544 517 -790 l75 -94 59 64 c129 141 263
374 325 564 51 155 52 144 -20 195 -307 214 -702 568 -969 869 -138 155 -236
276 -374 466 -73 100 -86 114 -81 85z"/>
<path d="M3975 8943 c-91 -253 -245 -508 -416 -688 -62 -65 -70 -78 -58 -89 8
-8 59 -55 114 -106 l99 -91 14 68 c55 274 207 562 405 770 51 53 87 98 82 100
-6 1 -55 28 -110 58 -54 30 -100 55 -101 55 -1 0 -14 -35 -29 -77z"/>
<path d="M9720 8975 c-41 -24 -88 -51 -103 -59 l-29 -16 67 -68 c207 -208 353
-475 419 -766 l22 -98 112 107 112 107 -63 68 c-177 187 -333 443 -422 693
-15 42 -30 77 -34 76 -3 0 -40 -20 -81 -44z"/>
<path d="M9637 7614 c-231 -166 -643 -384 -957 -508 -187 -73 -331 -119 -573
-181 -92 -23 -170 -44 -172 -47 -6 -6 41 -195 85 -338 l42 -135 -5 -160 c-4
-103 -13 -193 -26 -253 -47 -216 -143 -436 -264 -609 -71 -102 -294 -329 -331
-339 -13 -3 -66 2 -118 10 -51 9 -166 22 -255 28 -179 13 -396 3 -581 -28
l-101 -17 -36 27 c-169 129 -328 330 -435 551 -105 215 -148 391 -157 630 l-6
160 36 115 c46 149 97 352 91 362 -3 4 -15 8 -27 8 -20 0 -183 42 -425 110
-96 27 -325 114 -487 184 -234 103 -542 273 -749 415 -48 34 -96 61 -105 61
-33 0 -160 -48 -248 -94 -133 -70 -126 -59 -108 -152 18 -97 46 -196 81 -286
14 -37 26 -68 27 -68 1 0 40 37 87 83 140 136 288 197 481 197 386 0 689 -303
689 -689 0 -53 -7 -125 -16 -161 -20 -89 -83 -214 -139 -277 -38 -44 -43 -52
-28 -57 139 -43 451 -59 622 -32 57 9 106 14 108 12 8 -7 -141 -301 -212 -420
-36 -61 -65 -113 -65 -116 0 -4 44 -40 98 -82 172 -132 420 -369 551 -526 l43
-52 -38 -15 c-121 -48 -192 -81 -188 -86 7 -13 250 -88 321 -101 l72 -12 72
-110 c85 -130 168 -277 240 -425 l51 -106 76 -35 c42 -19 114 -59 160 -87 46
-29 86 -53 88 -53 2 0 36 21 76 48 41 26 112 65 159 87 l86 40 73 145 c77 154
168 311 247 424 l48 69 85 17 c92 19 270 75 295 94 17 12 18 11 -183 93 l-33
14 20 27 c78 109 380 401 556 539 61 47 111 89 113 93 1 4 -29 60 -68 126 -71
118 -215 402 -208 409 2 2 21 0 43 -5 93 -22 296 -32 415 -21 122 11 269 37
283 50 4 4 -10 30 -33 57 -99 120 -150 268 -150 434 0 125 16 195 69 305 117
242 349 385 620 385 191 0 341 -61 478 -195 l83 -80 29 76 c28 72 72 239 86
321 l6 37 -71 41 c-76 44 -187 93 -252 111 -22 5 -45 12 -51 14 -7 2 -47 -21
-90 -51z"/>
<path d="M4330 7190 c-200 -26 -373 -166 -442 -357 -26 -71 -35 -216 -19 -295
41 -194 203 -362 398 -413 71 -19 201 -19 268 -1 181 48 330 189 386 364 27
87 29 223 5 307 -77 263 -330 431 -596 395z m168 -181 c53 -26 98 -85 107
-140 8 -48 -1 -120 -18 -144 -12 -15 -16 -14 -46 14 -76 71 -196 72 -273 3
-32 -29 -41 -33 -49 -21 -12 19 -29 79 -29 104 0 69 56 156 123 189 46 23 132
20 185 -5z"/>
<path d="M9340 7189 c-121 -17 -252 -88 -330 -177 -61 -69 -118 -192 -130
-282 -29 -206 59 -409 228 -524 92 -63 167 -88 278 -94 168 -8 300 42 414 157
329 331 120 889 -345 924 -33 3 -85 1 -115 -4z m163 -175 c79 -40 120 -102
121 -184 1 -48 -18 -120 -31 -120 -3 0 -23 15 -45 34 -78 67 -183 65 -270 -4
l-38 -31 -16 38 c-39 93 4 212 95 260 53 28 136 31 184 7z"/>
<path d="M6897 2420 c-23 -424 -90 -768 -224 -1140 -58 -161 -32 -143 -342
-236 -8 -3 -12 -6 -10 -8 11 -11 411 -36 579 -36 252 0 605 24 595 39 -2 4
-30 13 -62 20 -32 7 -99 29 -150 48 -104 40 -97 31 -163 218 -118 337 -187
702 -208 1095 l-7 145 -8 -145z"/>
</g>
</svg>
